<?xml version="1.0" standalone="no"?>
<!DOCTYPE svg PUBLIC "-//W3C//DTD SVG 20010904//EN"
 "http://www.w3.org/TR/2001/REC-SVG-20010904/DTD/svg10.dtd">
<svg version="1.0" xmlns="http://www.w3.org/2000/svg"
 width="512.000000pt" height="512.000000pt" viewBox="0 0 512.000000 512.000000"
 preserveAspectRatio="xMidYMid meet">
<metadata>
Created by potrace 1.11, written by Peter Selinger 2001-2013
</metadata>
<g transform="translate(0.000000,512.000000) scale(0.100000,-0.100000)"
fill="#000000" stroke="none">
<path d="M2096 4810 c-258 -148 -472 -271 -476 -272 -27 -13 -1246 -713 -1250
-719 -7 -9 -7 -2516 0 -2522 6 -5 645 -369 720 -410 30 -17 67 -38 82 -49 14
-10 29 -18 31 -18 3 0 56 -29 117 -65 61 -36 130 -76 153 -88 23 -13 155 -88
292 -167 138 -78 275 -156 305 -173 30 -17 99 -57 153 -89 55 -32 100 -58 102
-58 2 0 28 -14 57 -31 29 -18 69 -41 88 -51 19 -11 49 -28 66 -39 36 -22 11
-32 265 114 90 51 184 105 209 119 25 14 104 59 175 100 72 41 150 86 175 100
239 134 1406 803 1410 809 7 9 7 2516 0 2522 -3 2 -295 169 -650 372 -355 202
-818 467 -1030 588 -212 121 -410 234 -440 250 -30 16 -59 34 -64 38 -6 5 -12
9 -15 8 -4 0 -217 -121 -475 -269z m845 -181 c195 -111 369 -210 387 -221 18
-10 66 -37 105 -59 40 -23 92 -53 117 -67 25 -13 72 -40 105 -60 75 -43 117
-68 175 -100 25 -14 182 -104 350 -200 168 -96 323 -185 345 -197 l40 -23 0
-1141 1 -1142 -276 -158 c-151 -86 -284 -162 -295 -169 -11 -6 -81 -46 -155
-88 -208 -118 -660 -377 -910 -520 -124 -71 -232 -132 -241 -136 -14 -6 -16
27 -15 340 l1 345 80 24 c409 123 714 369 871 701 39 83 81 219 89 290 3 26 8
58 11 72 3 13 5 79 5 146 0 566 -284 1154 -804 1669 -84 83 -198 187 -254 233
l-102 82 -103 -82 c-93 -75 -359 -330 -434 -418 -271 -316 -476 -687 -563
-1020 -146 -556 -40 -1008 312 -1339 27 -25 55 -52 62 -58 31 -29 182 -125
263 -166 87 -45 213 -93 307 -119 l50 -14 1 -339 c1 -187 -1 -343 -3 -347 -3
-7 -1874 1058 -1883 1073 -3 4 -5 520 -5 1145 l0 1137 830 473 c457 260 837
478 845 483 8 6 35 21 60 34 25 14 92 52 150 86 58 33 110 59 116 57 6 -2 170
-95 365 -207z m-475 -1319 c0 -449 -2 -570 -12 -566 -12 5 -604 364 -614 373
-13 12 132 235 248 379 94 118 354 384 375 384 2 0 3 -257 3 -570z m370 423
c151 -149 267 -291 376 -457 72 -110 95 -153 86 -160 -12 -10 -601 -368 -611
-372 -11 -4 -13 99 -13 565 0 530 1 569 16 561 10 -5 75 -67 146 -137z m-721
-1007 l350 -215 1 -305 0 -305 -55 31 c-31 18 -162 95 -291 171 -129 77 -251
148 -270 159 -115 66 -226 134 -231 141 -16 22 32 268 77 398 19 57 38 112 41
122 3 9 10 17 17 17 6 0 169 -97 361 -214z m1325 88 c42 -128 46 -141 56 -204
3 -19 7 -37 9 -40 2 -3 7 -33 10 -65 4 -33 9 -67 10 -76 2 -9 0 -20 -3 -25 -6
-8 -317 -195 -453 -272 -19 -11 -106 -62 -194 -114 -88 -52 -169 -100 -181
-106 -20 -11 -20 -10 -20 293 1 167 3 305 6 308 4 4 552 340 680 417 8 5 20 9
26 9 7 1 31 -56 54 -125z m-1668 -727 c79 -46 267 -157 418 -246 l276 -163 -1
-183 c0 -101 -3 -186 -6 -189 -3 -3 -41 6 -85 20 -385 125 -656 402 -739 754
-15 68 -18 90 -11 90 3 0 69 -38 148 -83z m1728 -18 c-12 -51 -26 -100 -30
-108 -4 -9 -20 -43 -35 -76 -125 -274 -389 -480 -741 -579 -21 -6 -21 -5 -20
181 l1 187 40 27 c22 14 59 37 82 50 34 19 561 330 638 376 35 22 80 41 84 38
2 -3 -7 -46 -19 -96z"/>
</g>
</svg>
